HIERARCHY
ROOT Hips
{
	OFFSET -0.001795 -0.223333 0.028219
	CHANNELS 6 Xposition Yposition Zposition Zrotation Yrotation Xrotation 
	JOINT LeftUpLeg
	{
		OFFSET 0.069520 -0.091406 -0.006815
		CHANNELS 3 Zrotation Yrotation Xrotation
		JOINT LeftLeg
		{
			OFFSET 0.034277 -0.375199 -0.004496
			CHANNELS 3 Zrotation Yrotation Xrotation
			JOINT LeftFoot
			{
				OFFSET -0.013596 -0.397961 -0.043693
				CHANNELS 3 Zrotation Yrotation Xrotation
				JOINT LeftToe
				{
					OFFSET 0.026358 -0.055791 0.119288
					CHANNELS 3 Zrotation Yrotation Xrotation
					End Site
					{
						OFFSET 0.000000 0.000000 0.000000
					}
				}
			}
		}
	}
	JOINT RightUpLeg
	{
		OFFSET -0.067670 -0.090522 -0.004320
		CHANNELS 3 Zrotation Yrotation Xrotation
		JOINT RightLeg
		{
			OFFSET -0.038290 -0.382569 -0.008850
			CHANNELS 3 Zrotation Yrotation Xrotation
			JOINT RightFoot
			{
				OFFSET 0.015774 -0.398415 -0.042312
				CHANNELS 3 Zrotation Yrotation Xrotation
				JOINT RightToe
				{
					OFFSET -0.025372 -0.048144 0.123348
					CHANNELS 3 Zrotation Yrotation Xrotation
					End Site
					{
						OFFSET 0.000000 0.000000 0.000000
					}
				}
			}
		}
	}
	JOINT Spine
	{
		OFFSET -0.002533 0.108963 -0.026696
		CHANNELS 3 Zrotation Yrotation Xrotation
		JOINT Spine1
		{
			OFFSET 0.005487 0.135180 0.001092
			CHANNELS 3 Zrotation Yrotation Xrotation
			JOINT Spine2
			{
				OFFSET 0.001457 0.052922 0.025425
				CHANNELS 3 Zrotation Yrotation Xrotation
				JOINT Neck
				{
					OFFSET -0.002778 0.213870 -0.042857
					CHANNELS 3 Zrotation Yrotation Xrotation
					JOINT Head
					{
						OFFSET 0.005152 0.064970 0.051349
						CHANNELS 3 Zrotation Yrotation Xrotation
						End Site
						{
							OFFSET 0.000000 0.000000 0.000000
						}
					}
				}
				JOINT LeftShoulder
				{
					OFFSET 0.078845 0.121749 -0.034090
					CHANNELS 3 Zrotation Yrotation Xrotation
					JOINT LeftArm
					{
						OFFSET 0.090977 0.030469 -0.008868
						CHANNELS 3 Zrotation Yrotation Xrotation
						JOINT LeftForeArm
						{
							OFFSET 0.259612 -0.012772 -0.027456
							CHANNELS 3 Zrotation Yrotation Xrotation
							JOINT LeftHand
							{
								OFFSET 0.249234 0.008986 -0.001171
								CHANNELS 3 Zrotation Yrotation Xrotation
								End Site
								{
									OFFSET 0.000000 0.000000 0.000000
								}
							}
						}
					}
				}
				JOINT RightShoulder
				{
					OFFSET -0.081759 0.118833 -0.038615
					CHANNELS 3 Zrotation Yrotation Xrotation
					JOINT RightArm
					{
						OFFSET -0.096012 0.032551 -0.009143
						CHANNELS 3 Zrotation Yrotation Xrotation
						JOINT RightForeArm
						{
							OFFSET -0.253742 -0.013329 -0.021401
							CHANNELS 3 Zrotation Yrotation Xrotation
							JOINT RightHand
							{
								OFFSET -0.255298 0.007772 -0.005559
								CHANNELS 3 Zrotation Yrotation Xrotation
								End Site
								{
									OFFSET 0.000000 0.000000 0.000000
								}
							}
						}
					}
				}
			}
		}
	}
}
MOTION
Frames: 9
Frame Time: 0.050000
0.000000 0.944724 0.000000 -1.439056 -4.155444 7.952021 5.615163 -0.498981 -9.352297 4.784551 -0.978927 6.187673 0.748081 4.769835 10.011280 0.000000 0.000000 0.000000 -1.174352 0.810171 -8.332002 -1.869295 0.348704 2.902310 1.050864 -2.069067 8.555881 0.000000 0.000000 0.000000 4.080665 0.427492 -6.948728 -3.006977 1.378195 -2.403973 -4.159437 3.734395 2.442378 7.655468 -4.532900 -8.233008 0.000000 0.000000 0.000000 -5.489655 -6.439351 1.812554 -77.042527 -36.079117 17.259520 -164.209304 -63.045163 160.225700 0.000000 0.000000 0.000000 6.357218 1.169651 0.080154 70.377573 20.967496 7.173253 135.918372 67.033921 123.102646 0.000000 0.000000 0.000000 
0.000268 0.945147 0.000522 -1.631326 -3.715777 8.751614 5.975065 -0.494300 -9.372581 4.630207 -0.842385 4.597023 0.516115 4.466759 10.215559 0.000000 0.000000 0.000000 -0.874413 0.897354 -9.149565 -2.003366 0.369466 2.970278 0.894039 -2.491799 8.875553 0.000000 0.000000 0.000000 4.456838 0.423987 -6.951251 -2.133747 0.983879 -3.155203 -5.506164 3.510119 1.688390 9.318495 -5.684045 -8.049425 0.000000 0.000000 0.000000 -5.982037 -6.341326 1.699256 -76.291563 -38.849694 19.273552 -173.978944 -64.340932 175.784728 0.000000 0.000000 0.000000 6.389084 0.581749 -0.146499 69.961745 19.920428 6.565011 136.318160 62.772218 119.482779 0.000000 0.000000 0.000000 
0.000699 0.944931 0.000084 -1.592625 -4.107083 7.828597 5.643683 -0.467833 -8.578021 4.972357 -0.931542 5.080344 0.698547 4.697277 10.037391 0.000000 0.000000 0.000000 -0.123215 0.890403 -8.873436 -3.493234 0.643162 4.159691 0.948650 -2.243766 8.460323 0.000000 0.000000 0.000000 4.711796 0.337565 -5.720453 -1.278107 0.608494 -2.704481 -6.282128 4.020286 0.352455 8.123519 -5.329565 -5.284429 0.000000 0.000000 0.000000 -5.903444 -7.549830 2.103993 -76.771769 -42.806623 22.684493 174.696651 -61.344909 -165.976429 0.000000 0.000000 0.000000 7.072342 1.289286 0.147707 70.507539 22.861554 8.841247 141.451194 65.542750 129.410312 0.000000 0.000000 0.000000 
0.001277 0.945395 -0.001182 -1.568685 -2.639242 8.083277 5.882166 -0.508902 -9.365983 4.780795 -0.906607 5.179748 -0.013010 3.628069 10.020950 0.000000 0.000000 0.000000 0.161529 0.986296 -9.708500 -3.804268 0.780892 5.344002 0.269419 -3.571876 8.658776 0.000000 0.000000 0.000000 4.900550 0.344311 -5.927468 -1.014359 0.501988 -2.758209 -6.762516 2.920603 0.280600 8.343588 -5.639876 -4.546098 0.000000 0.000000 0.000000 -4.060368 -8.090905 2.438438 -78.849050 -47.507944 27.707526 165.054300 -59.585861 -148.823667 0.000000 0.000000 0.000000 5.417502 0.955113 0.072717 71.558476 24.555096 10.263329 148.351242 65.635860 139.205558 0.000000 0.000000 0.000000 
0.001981 0.946537 -0.003059 -1.297489 -1.818112 7.887052 5.162638 -0.571290 -9.618967 5.590923 -1.046713 5.368218 -0.487268 3.022359 10.365559 0.000000 0.000000 0.000000 -0.191048 0.978652 -9.784603 -3.599634 0.786403 5.802910 -0.050327 -4.272897 9.019276 0.000000 0.000000 0.000000 4.600589 0.301602 -5.538379 -0.630616 0.346388 -3.266250 -6.917524 2.810575 0.577887 8.199168 -5.505659 -4.684268 0.000000 0.000000 0.000000 -2.627602 -9.861172 3.143369 -76.049213 -54.610193 32.383501 151.843593 -55.124730 -123.314542 0.000000 0.000000 0.000000 4.967769 1.766822 0.445741 71.845366 26.563591 11.792029 155.035107 68.142674 150.879641 0.000000 0.000000 0.000000 
0.002691 0.947648 -0.004935 -1.314620 -0.933382 8.219485 5.138253 -0.604528 -9.951128 5.778925 -1.017668 4.705390 -0.991706 2.385226 10.722167 0.000000 0.000000 0.000000 -0.218422 0.970564 -9.730342 -3.439451 0.705551 5.026374 -0.311945 -4.928220 9.657410 0.000000 0.000000 0.000000 4.559196 0.298881 -5.654929 -0.329694 0.217851 -3.024657 -7.193172 2.911299 -0.067260 7.927125 -5.408892 -3.977991 0.000000 0.000000 0.000000 -0.583146 -9.699420 3.145556 -72.848924 -61.731622 36.501770 142.224531 -48.846704 -101.223763 0.000000 0.000000 0.000000 4.113688 2.378844 0.753422 71.431402 26.814137 12.124875 163.576685 69.832952 164.271191 0.000000 0.000000 0.000000 
0.003354 0.949601 -0.006067 -1.306366 -0.367979 8.446695 4.963158 -0.654520 -10.593442 6.079271 -1.084871 4.986965 -1.369587 2.018194 11.290118 0.000000 0.000000 0.000000 0.021297 0.990048 -9.838587 -3.846057 0.744492 4.745415 -0.428599 -5.365104 10.462688 0.000000 0.000000 0.000000 4.595599 0.286404 -5.586788 -0.117984 0.145189 -3.683090 -6.906042 3.960105 0.068287 8.783409 -5.835232 -4.813954 0.000000 0.000000 0.000000 2.274685 -9.875750 3.343585 -62.409459 -69.650246 35.386424 133.030407 -38.336758 -73.593534 0.000000 0.000000 0.000000 4.007409 1.566896 0.505310 70.521574 25.984438 11.592604 162.991571 73.432701 165.448495 0.000000 0.000000 0.000000 
0.003928 0.951319 -0.006182 -1.169406 0.504335 8.778780 4.504110 -0.706113 -10.753720 6.708711 -1.103886 4.215106 -1.930068 1.420698 11.904203 0.000000 0.000000 0.000000 0.052237 0.963961 -9.584689 -4.069721 0.707789 3.814896 -0.682834 -5.996565 11.259334 0.000000 0.000000 0.000000 4.297015 0.310556 -6.081623 0.069344 0.060646 -3.258525 -6.569582 4.129625 -1.025049 7.836607 -5.332426 -3.707833 0.000000 0.000000 0.000000 4.934809 -8.662600 3.192655 -46.796954 -75.539661 27.691166 128.417454 -28.257998 -52.439464 0.000000 0.000000 0.000000 3.646563 1.353558 0.449915 70.496161 23.645359 10.253466 142.273709 78.883802 142.133879 0.000000 0.000000 0.000000 
0.004669 0.953519 -0.005181 -1.288250 1.214410 9.007993 4.431896 -0.715235 -10.621586 7.094142 -1.068241 3.331777 -2.427252 0.946863 12.560819 0.000000 0.000000 0.000000 0.473586 0.964895 -9.438923 -4.518172 0.734686 3.350664 -0.846381 -6.485968 12.198490 0.000000 0.000000 0.000000 3.833036 0.298239 -6.115250 0.461389 -0.083635 -3.841611 -5.545046 4.728879 -0.835324 7.965807 -5.239973 -4.490747 0.000000 0.000000 0.000000 7.819097 -7.573291 3.194327 -10.332728 -77.331717 0.264891 126.527767 -16.837327 -31.457050 0.000000 0.000000 0.000000 3.066499 0.517189 0.164457 71.416784 19.938244 8.092558 89.844008 80.202110 86.536459 0.000000 0.000000 0.000000 
